<?xml version="1.0" encoding="UTF-8"?>
<!DOCTYPE svg PUBLIC "-//W3C//DTD SVG 1.1//EN" "http://www.w3.org/Graphics/SVG/1.1/DTD/svg11.dtd">
<!-- Creator: CorelDRAW 2018 (64 Bit) -->
<svg xmlns="http://www.w3.org/2000/svg" xml:space="preserve" width="164.475mm" height="164.475mm" version="1.1" style="shape-rendering:geometricPrecision; text-rendering:geometricPrecision; image-rendering:optimizeQuality; fill-rule:evenodd; clip-rule:evenodd"
viewBox="0 0 16447.52 16447.52"
 xmlns:xlink="http://www.w3.org/1999/xlink">
 <defs>
  <style type="text/css">
   <![CDATA[
    .fil1 {fill:#FEFEFE}
    .fil0 {fill:#FF4200}
    .fil2 {fill:#FEFEFE;fill-rule:nonzero}
   ]]>
  </style>
 </defs>
 <g id="Camada_x0020_1">
  <metadata id="CorelCorpID_0Corel-Layer"/>
  <circle class="fil0" cx="8223.76" cy="8223.76" r="8223.76"/>
  <g id="_2219391854624">
   <g>
    <path class="fil1" d="M12204.96 7571.16c60.63,-38.3 139.25,-181.76 212.46,-250.85 22.39,-21.13 42.61,-30.69 63.37,-51.67 44.34,-44.81 131.42,-130.93 183.76,-160.66 36.75,15.46 229.91,181.77 255.33,212.35 67.52,81.2 136.04,178.6 209.25,252.12 52.3,-62.85 192.59,-380.41 232.03,-473.52 106.73,-252 121.56,-311.13 -31.06,-516.99 -86.52,-116.71 -207.28,-237.57 -282.73,-332.86l-121.84 -140.96c-25.48,-31.52 -56.57,-67.22 -84.59,-95.84 -17.11,-17.46 -24.45,-31.09 -40.89,-49.58l-127.29 -139.99c-70.73,47.67 -332.95,379.06 -418.36,464.61l-246.49 295.31c-156.35,207.78 -143.1,245.61 -38.23,506.08 61.19,152.03 137.67,280.48 202.26,421.6l33.02 60.85z"/>
    <path class="fil1" d="M10321.57 6743.59c15.08,89.93 240.48,487.48 318.85,574.97 155.96,174.11 833.92,366.15 1071.73,416.08 -16.32,-78.37 -73.74,-163.88 -102.62,-245.93 43.31,-4.83 415.67,112.98 521.07,126.97 -6.36,-44.07 -200.42,-413.63 -244.15,-509.25 -95.96,-209.75 -191.44,-265.73 -376.63,-378.44 -204.22,-124.29 -292.96,-185.86 -584.29,-136.15 -103.24,17.61 -208.43,43.7 -307.4,69.82 -85.75,22.63 -218.15,73.16 -296.56,81.93z"/>
    <path class="fil1" d="M13212.26 7614.77c172.6,-16.7 354.54,-98.69 520.88,-130.21 -23.32,94.38 -79.87,156.28 -103.24,250.37 219.49,-48.17 702.94,-194.24 893.69,-294.42 169.92,-89.24 199.63,-137.16 295.51,-295.88 45.89,-75.97 189.36,-313.82 202.57,-400.85 -43.6,-4.3 -437.89,-122.88 -593.2,-151.45 -286.27,-52.66 -389.25,8.67 -588.75,131.48 -78.96,48.6 -161.29,97.12 -223.25,154.16 -144.41,132.97 -179.28,281.21 -279.65,475.36 -32.72,63.28 -110.14,196.37 -124.56,261.44z"/>
    <path class="fil1" d="M11337.66 6531.49c164.54,97.44 184.41,100.09 343.31,214.16 21.55,15.47 92.32,65.27 113.63,72.98 26.07,-27.36 0.18,-71.95 57.89,-161.63l278.63 -386.24c-44.46,-93.16 -429.47,-318.07 -527.05,-327.17 -70.47,-6.56 -165.12,172.32 -194.03,230.02 -56.54,112.84 -70.91,217.58 -72.38,357.88z"/>
    <path class="fil1" d="M13211.51 6270.76c21.46,38.88 62.91,88.59 90.27,126.2 100.12,137.57 225.11,267.77 235.98,420.45 41.79,-6.63 80.41,-43.12 113.99,-68.09 79.33,-59.02 272.87,-187.11 353.26,-213.62 -0.4,-143.82 -17.54,-245.46 -71.76,-359.82 -28.18,-59.42 -122.75,-237.52 -191.91,-232.02 -98.17,7.81 -465.15,220.89 -529.83,326.9z"/>
   </g>
   <path class="fil2" d="M1453.93 7458.91l0 -500.32 66.38 0 0 441.63 245.97 0 0 58.69 -312.35 0zm1172.93 0l0 -500.32 66.39 0 0 500.32 -66.39 0zm952.58 0l0 -500.32 68.02 0 262.5 392.71 0 -392.71 63.59 0 0 500.32 -68.02 0 -262.5 -392.7 0 392.7 -63.59 0zm1509.75 -196.35l0 -58.7 211.72 0 0 185.41c-32.49,25.85 -66.03,45.41 -100.62,58.46 -34.59,13.04 -70.11,19.56 -106.45,19.56 -49.14,0 -93.74,-10.48 -133.92,-31.56 -40.07,-20.96 -70.46,-51.47 -90.85,-91.19 -20.49,-39.82 -30.75,-84.32 -30.75,-133.35 0,-48.67 10.14,-94.09 30.52,-136.37 20.38,-42.16 49.62,-73.48 87.81,-93.86 38.2,-20.5 82.22,-30.75 132.07,-30.75 36.1,0 68.83,5.82 98.06,17.59 29.23,11.76 52.18,28.06 68.71,48.91 16.65,20.96 29.23,48.33 37.85,81.98l-59.74 16.32c-7.58,-25.39 -16.89,-45.43 -27.96,-60.1 -11.18,-14.55 -27.01,-26.2 -47.75,-34.94 -20.61,-8.74 -43.54,-13.16 -68.82,-13.16 -30.16,0 -56.25,4.66 -78.38,13.86 -22,9.2 -39.71,21.31 -53.34,36.45 -13.51,15.02 -23.99,31.56 -31.45,49.5 -12.69,31.09 -19.09,64.62 -19.09,100.85 0,44.72 7.68,82.1 22.94,112.27 15.37,30.05 37.74,52.41 66.97,66.96 29.34,14.56 60.44,21.9 93.39,21.9 28.66,0 56.61,-5.59 83.86,-16.66 27.25,-11.18 47.86,-22.94 61.95,-35.63l0 -93.75 -146.73 0zm1081.16 196.35l0 -500.32 361.26 0 0 58.7 -294.88 0 0 153.73 276.01 0 0 58.69 -276.01 0 0 170.51 306.76 0 0 58.69 -373.14 0zm1236.4 0l0 -500.32 221.74 0c44.61,0 78.5,4.55 101.68,13.51 23.17,8.97 41.69,24.81 55.54,47.52 13.87,22.71 20.73,47.87 20.73,75.35 0,35.52 -11.52,65.45 -34.47,89.79 -22.94,24.34 -58.33,39.71 -106.32,46.35 17.58,8.39 30.86,16.77 39.94,24.92 19.33,17.71 37.62,39.95 54.74,66.62l86.53 136.26 -82.69 0 -66.14 -104.12c-19.22,-30.16 -35.18,-53.1 -47.64,-69.06 -12.58,-15.95 -23.76,-27.02 -33.66,-33.42 -9.78,-6.29 -19.91,-10.71 -30.16,-13.28 -7.46,-1.51 -19.69,-2.33 -36.8,-2.33l-76.63 0 0 222.21 -66.39 0zm66.39 -279.51l142.08 0c30.27,0 53.8,-3.14 70.81,-9.43 17,-6.17 29.93,-16.19 38.66,-30.05 8.86,-13.74 13.28,-28.65 13.28,-44.83 0,-23.65 -8.5,-43.21 -25.62,-58.47 -17.12,-15.26 -44.14,-22.82 -81.06,-22.82l-158.15 0 0 165.6zm1218.35 279.51l0 -500.32 66.38 0 0 500.32 -66.38 0zm954.69 0l0 -500.32 361.26 0 0 58.7 -294.87 0 0 153.73 276 0 0 58.69 -276 0 0 170.51 306.75 0 0 58.69 -373.14 0z"/>
   <path class="fil2" d="M1425.85 10624.81l225.44 0 0 -1210.42 1425.46 0 0 1210.42 225.44 0 0 -2500.62 -225.44 0 0 1085.57 -1425.46 0 0 -1085.57 -225.44 0 0 2500.62zm2441.49 0l240.47 0 284.4 -759.54 1124.29 0 278.05 759.54 240.46 0 -948.57 -2500.62 -271.1 0 -948 2500.62zm602.9 -967.64l477.47 -1290.21 487.87 1290.21 -965.34 0zm2229.34 967.64l225.45 0 0 -1113.32 729.48 0c201.17,0 333.54,33.53 397.13,101.16 60.69,65.9 99.42,207.52 115.03,426.02l27.16 328.33c4.05,60.69 10.98,111.57 19.66,152.03 9.25,42.78 20.22,78.03 34.1,105.78l253.18 0 0 -34.68c-23.11,-20.23 -39.88,-48.55 -50.86,-84.98 -16.18,-38.14 -26.02,-86.7 -30.64,-145.66l-27.16 -376.3c-17.93,-185.56 -41.63,-310.99 -71.1,-376.9 -42.78,-94.8 -124.28,-161.26 -243.94,-200 128.9,-47.4 228.33,-123.12 298.27,-227.17 68.78,-106.36 103.47,-236.42 103.47,-390.18 0,-126.59 -27.17,-238.73 -80.93,-335.84 -52.02,-97.11 -126.59,-172.84 -223.7,-227.18 -80.92,-45.08 -178.04,-74.56 -290.75,-88.44 -76.88,-8.66 -194.81,-13.29 -354.93,-13.29l-828.92 0 0 2500.62zm225.45 -1321.41l0 -971.11 650.3 0c121.96,0 212.73,3.46 271.1,10.41 83.82,13.29 153.76,39.3 210.41,78.03 58.39,38.14 103.47,90.18 135.27,156.07 34.09,65.32 50.86,139.31 50.86,220.81 0,180.93 -53.18,311 -158.97,390.18 -104.04,76.88 -269.94,115.61 -498.27,115.61l-660.7 0zm2914.32 -1179.21l-595.96 0 0 2500.62 697.12 0c180.93,0 321.98,-6.94 423.13,-20.22 128.91,-16.19 235.84,-45.68 321.39,-88.45 169.37,-92.49 299.44,-235.27 389.62,-427.17 90.17,-194.81 135.25,-434.7 135.25,-719.67 0,-267.06 -41.62,-495.39 -125.44,-684.98 -80.92,-185.56 -195.96,-327.18 -345.09,-424.29 -90.17,-56.65 -199.43,-95.38 -328.33,-115.61 -94.8,-13.3 -227.75,-20.23 -399.43,-20.23l-172.26 0zm-370.53 2292.53l0 -2084.43 471.12 0c176.3,0 302.89,4.62 379.77,13.29 119.66,13.87 216.77,45.67 291.34,95.37 120.23,76.89 210.4,193.07 271.68,349.14 60.69,157.81 91.33,353.19 91.33,586.15 0,241.62 -31.79,440.46 -94.8,596.54 -63.58,158.38 -158.39,275.73 -284.98,352.6 -69.94,38.15 -160.12,63.01 -271.1,74.57 -79.19,10.99 -198.85,16.77 -359.55,16.77l-494.81 0zm3125.32 208.09l225.43 0 0 -1099.44 856.68 -1401.18 -264.18 0 -706.94 1186.15 -700.59 -1186.15 -264.18 0 853.78 1401.18 0 1099.44z"/>
  </g>
 </g>
</svg>
